<svg xmlns="http://www.w3.org/2000/svg" style="fill:#4a71f6" version="1.0" viewBox="0 0 5641.5 1932.5"><defs><clipPath id="a"><path d="M0 0h5641.54v1932.52H0Zm0 0"/></clipPath></defs><g clip-path="url(#a)"><path fill-rule="evenodd" d="M3153.43 702.969c-170.442 116.543-321.09 266.62-424.371 449.71-56.899 100.872-113.047 229.122-119.079 380.032-3.308 82.848 11.18 154.25 39.27 210.289 27.61 55.07 68.32 98.23 133.012 117.809 72.738 22.011 152.718 2.73 210.289-21.54 59.07-24.89 107.84-59.257 152.02-97.539 44.1-38.218 83.8-83.91 116.538-133.011 67.582-101.348 115.063-217.528 130.48-369.899 7.692-76 3.302-157.879-10.14-231.82-25.289-139.172-82.687-254.29-145.68-354.7h-2.53c-26.84 17.579-54.227 33.188-79.81 50.669Zm100.082-134.278c267.918-146.89 574.379-256.96 955.16-291.363 163.27-14.75 347.098-11.898 501.637 11.402 308.043 46.442 549.8 168.079 748.671 317.961-7.43-15.98-19.68-30.632-30.402-46.87-21.328-32.301-43.2-59.352-63.34-96.27-9.468-17.371-21.168-48.301 5.07-54.48 22.653-5.333 36.153 19.429 44.34 31.667 64.262 96.114 121.692 189.82 193.82 277.434 7.134 8.668 12.634 15.328 17.731 21.527 6.77 8.25 14.403 16.082 15.2 24.082 1.57 15.719-10.399 34.809-20.27 37.989-14.957 4.851-32.02-3.872-46.867-8.86-47.14-15.832-81.832-24.89-135.543-39.27-21.89-5.859-69.66-18.14-92.48-24.07-17.489-4.539-75.95-14.422-72.208-45.601 2.617-21.79 29.52-20.117 51.938-15.2 61.07 13.391 109.52 30.903 172.293 48.13-.032-5.727-6.684-7.489-10.14-10.137-63.032-48.23-129.231-96.992-198.892-140.602-222.492-139.32-488.789-230.148-847.468-235.629-234.57-3.57-447.961 29.23-638.461 81.078-190.18 51.762-361.403 124.75-514.32 207.75 67.75 109.551 130.44 236.07 155.808 391.442 13.25 81.09 17.121 172.64 7.602 255.89-9.063 79.22-30.282 154.79-55.73 217.887-52.75 130.742-128.263 233.652-229.29 317.961-47.25 39.422-104.371 77.621-171.02 102.61-69.273 25.972-150.96 38.242-229.292 15.203-71.739-21.102-120.618-62.782-155.809-117.813-35.488-55.5-58.91-126.918-63.34-210.289-4.77-89.809 10.559-170.86 30.399-243.219 19.5-71.09 49.011-137.41 78.543-195.09 30.34-59.25 67.668-115.043 106.41-167.21 115.36-155.34 267.047-281.993 434.508-385.11-9.399-18.582-24.04-33.75-36.739-49.402-89.203-109.969-196.8-205.047-320.492-282.489-140.879-88.199-300.719-160.101-496.578-191.289-104.852-16.703-215.77-20.16-323.031-11.402-104.57 8.55-204.032 28.922-292.63 51.941-183.75 47.739-340.628 114.41-491.51 196.348-296.063 160.793-541.759 375.063-736.005 641-145.55 199.262-259.773 425.371-367.367 665.063-26.113 58.168-51.39 117.75-76.008 182.418-6.633 17.41-11.61 50.52-35.472 49.402-13.97-.66-19.567-9.191-21.536-20.27-3.726-20.992 19.368-67.113 29.137-92.472 34.148-88.649 71.418-180.188 107.68-260.957 51.594-114.934 104.656-224.82 163.414-328.102 120.055-211.008 267.785-397.07 431.972-551.05 83.989-78.77 176.848-149.579 274.895-216.622 194.469-132.968 414.84-240.226 667.602-315.43 63.25-18.82 130.707-33.859 200.148-45.609 71.238-12.05 145.219-17.847 224.219-21.527 139.71-6.512 281.23 14.976 388.902 44.34 115.238 31.418 214.64 74.039 305.3 124.136 189.028 104.473 337.458 236.032 459.84 399.043" style="fill:inherit"/></g></svg>